:FULLY-SPECIFIED
:FORCE-ALL-JOINTS-BE-3DOF
:DEGREES
544
root 8.24573 13.9135 -3.52315 179.112 46.9919 176.826
lfemur -33.7253 -5.99039 -16.2471
ltibia 89.3721 -0 0
lfoot -39.3332 -10.9092 -0.00072173
ltoes -5.47729 0 0
rfemur -49.0029 -8.29196 -3.36497
rtibia 64.934 -0 0
rfoot -11.1647 1.06109 -0.0152879
rtoes -39.3966 0 0
lowerback 13.2859 1.13642 1.49917
upperback 7.11299 2.67666 7.14201
thorax -0.238841 1.62909 6.31371
lowerneck -2.13619 -16.0069 -6.07694
upperneck 9.11449 -21.7418 8.76148
head 4.71601 -10.4963 2.28864
lclavicle 4.91936e-15 -1.3974e-14 -2.7122e-29
lhumerus -45.4432 -12.3452 104.108
lradius 56.5833 -0 0
lwrist 31.1544 0 0
lhand -24.8866 -2.61709 0.00443916
lfingers 7.12502 -0 0
lthumb 1.62105 27.3574 0.00433833
rclavicle 4.91936e-15 -1.3974e-14 -2.7122e-29
rhumerus 4.64239 18.1711 -90.9186
rradius 135.744 -0 0
rwrist -46.2887 0 0
rhand -30.6746 -24.2154 0.0139959
rfingers 7.12502 -0 0
rthumb -3.96882 -54.1546 0.013224
545
root 8.28422 13.9055 -3.4962 179.192 46.7149 176.95
lfemur -33.7612 -6.02781 -15.7756
ltibia 89.3714 -0 0
lfoot -39.4514 -11.8918 0.00181197
ltoes -4.68512 0 0
rfemur -49.0925 -8.34395 -3.17383
rtibia 65.3283 -0 0
rfoot -11.1151 0.803763 -0.00552545
rtoes -39.3034 0 0
lowerback 13.2037 0.947338 1.60167
upperback 7.08534 2.42573 7.03838
thorax -0.190196 1.50431 6.18007
lowerneck -2.01619 -15.8705 -5.96489
upperneck 8.7553 -21.5552 8.79494
head 4.56355 -10.4197 2.32799
lclavicle 4.93775e-14 -7.12147e-15 -2.23277e-29
lhumerus -45.6658 -11.947 103.727
lradius 56.0964 -0 0
lwrist 31.4492 0 0
lhand -24.7747 -2.5953 0.00240934
lfingers 7.12502 -0 0
lthumb 1.72915 27.3779 0.00235385
rclavicle 4.93775e-14 -7.12147e-15 -2.23277e-29
rhumerus 5.02071 18.8442 -90.448
rradius 135.316 -0 0
rwrist -45.7133 0 0
rhand -30.1526 -23.7118 0.0103487
rfingers 7.12502 -0 0
rthumb -3.46475 -53.6608 0.00976995
546
root 8.31669 13.9089 -3.47167 179.275 46.5104 177.059
lfemur -33.739 -6.00245 -15.369
ltibia 89.2305 -0 0
lfoot -39.5363 -12.7239 0.00255789
ltoes -4.03332 0 0
rfemur -49.1282 -8.29209 -3.00086
rtibia 65.5324 -0 0
rfoot -10.9686 0.542604 0.00118766
rtoes -39.2094 0 0
lowerback 13.1033 0.765644 1.66325
upperback 7.03863 2.17569 6.92581
thorax -0.153395 1.37767 6.05955
lowerneck -1.9138 -15.7449 -5.86411
upperneck 8.44539 -21.3827 8.80968
head 4.42952 -10.3486 2.35853
lclavicle 8.28057e-14 -2.41089e-16 -1.22467e-29
lhumerus -45.8587 -11.568 103.369
lradius 55.6353 -0 0
lwrist 31.6035 0 0
lhand -24.6841 -2.60616 0.000662096
lfingers 7.12502 -0 0
lthumb 1.81664 27.366 0.000647219
rclavicle 8.28057e-14 -2.41089e-16 -1.22467e-29
rhumerus 5.51256 19.3925 -89.9192
rradius 134.962 -0 0
rwrist -45.2041 0 0
rhand -29.6666 -23.242 0.00473259
rfingers 7.12502 -0 0
rthumb -2.99551 -53.1996 0.00446268
547
root 8.3426 13.9245 -3.44966 -180.653 46.3973 -182.868
lfemur -33.6469 -5.88619 -15.0556
ltibia 88.9407 0 0
lfoot -39.5906 -13.3481 0
ltoes -3.60323 0 0
rfemur -49.0997 -8.13052 -2.84987
rtibia 65.5231 0 0
rfoot -10.7566 0.259778 0
rtoes -39.0929 0 0
lowerback 12.986 0.604552 1.66225
upperback 6.9725 1.94136 6.80527
thorax -0.131767 1.25582 5.96331
lowerneck -1.83125 -15.6388 -5.78109
upperneck 8.20244 -21.237 8.80926
head 4.32172 -10.2881 2.37983
lclavicle 9.85972e-14 6.36111e-15 0
lhumerus -46.01 -11.1851 103.032
lradius 55.2192 0 0
lwrist 31.5909 0 0
lhand -24.6475 -2.6444 0
lfingers 7.12502 0 0
lthumb 1.85197 27.3273 0
rclavicle 9.85972e-14 6.36111e-15 0
rhumerus 6.08594 19.7702 -89.381
rradius 134.72 0 0
rwrist -44.7914 0 0
rhand -29.263 -22.8451 0
rfingers 7.12502 0 0
rthumb -2.6057 -772.809 0
548
root 8.36252 13.9532 -3.42983 179.403 46.3438 177.17
lfemur -33.4886 -5.68904 -14.832
ltibia 88.5046 -0 0
lfoot -39.6012 -13.7712 -0.00409583
ltoes -3.40074 0 0
rfemur -48.991 -7.81073 -2.73992
rtibia 65.3127 -0 0
rfoot -10.4652 -0.104328 -0.0119023
rtoes -38.9714 0 0
lowerback 12.8474 0.455688 1.59238
upperback 6.88306 1.70963 6.67098
thorax -0.126072 1.13158 5.8903
lowerneck -1.76858 -15.552 -5.72207
upperneck 8.02882 -21.1181 8.79489
head 4.24158 -10.2384 2.39262
lclavicle 9.21526e-14 1.45536e-14 1.26383e-29
lhumerus -46.1172 -10.805 102.719
lradius 54.8308 -0 0
lwrist 31.3323 0 0
lhand -24.6531 -2.72267 -1.06178e-05
lfingers 7.12502 -0 0
lthumb 1.84661 27.2491 -9.98694e-06
rclavicle 9.21526e-14 1.45536e-14 1.26383e-29
rhumerus 6.80038 19.943 -88.7877
rradius 134.61 -0 0
rwrist -44.4745 0 0
rhand -28.9157 -22.4936 -0.00167753
rfingers 7.12502 -0 0
rthumb -2.27032 -52.4617 -0.00156054
549
root 8.37711 13.9946 -3.41198 179.456 46.3227 177.19
lfemur -33.2756 -5.43981 -14.6716
ltibia 87.9306 -0 0
lfoot -39.5614 -14.0464 -0.00654418
ltoes -3.35549 0 0
rfemur -48.8057 -7.322 -2.67309
rtibia 64.926 -0 0
rfoot -10.0614 -0.553802 -0.0291691
rtoes -38.8701 0 0
lowerback 12.6851 0.304263 1.47096
upperback 6.76951 1.46282 6.52039
thorax -0.133649 0.996614 5.83034
lowerneck -1.72393 -15.4767 -5.68346
upperneck 7.90931 -21.0151 8.76431
head 4.18262 -10.195 2.39762
lclavicle 6.78116e-14 2.52312e-14 2.26679e-29
lhumerus -46.1894 -10.45 102.435
lradius 54.4474 -0 0
lwrist 30.8247 0 0
lhand -24.6678 -2.84986 -0.000195553
lfingers 7.12502 -0 0
lthumb 1.8324 27.1221 -0.000187919
rclavicle 6.78116e-14 2.52312e-14 2.26679e-29
rhumerus 7.70068 19.9347 -88.0842
rradius 134.604 -0 0
rwrist -44.2258 0 0
rhand -28.5751 -22.1436 -0.00142822
rfingers 7.12502 -0 0
rthumb -1.94137 -52.1149 -0.00129575
550
root 8.38596 14.0476 -3.39642 179.514 46.3594 177.201
lfemur -33.0076 -5.13832 -14.5675
ltibia 87.219 -0 0
lfoot -39.4836 -14.1862 -0.00727658
ltoes -3.4345 0 0
rfemur -48.5629 -6.71513 -2.62734
rtibia 64.3582 -0 0
rfoot -9.54886 -1.02318 -0.0448561
rtoes -38.7788 0 0
lowerback 12.5037 0.153797 1.31161
upperback 6.63599 1.20886 6.35928
thorax -0.152748 0.855792 5.78084
lowerneck -1.69662 -15.4099 -5.65698
upperneck 7.83524 -20.9238 8.71592
head 4.14075 -10.156 2.39436
lclavicle 3.23758e-14 3.66274e-14 2.50566e-29
lhumerus -46.2326 -10.1203 102.178
lradius 54.08 -0 0
lwrist 30.1559 0 0
lhand -24.6926 -3.01508 -0.000435361
lfingers 7.12502 -0 0
lthumb 1.8084 26.9571 -0.000418771
rclavicle 3.23758e-14 3.66274e-14 2.50566e-29
rhumerus 8.73068 19.7886 -87.3068
rradius 134.67 -0 0
rwrist -44.0362 0 0
rhand -28.2516 -21.8094 -0.000312852
rfingers 7.12502 -0 0
rthumb -1.62894 -51.783 -0.000223015
551
root 8.3887 14.111 -3.38347 179.588 46.4793 177.209
lfemur -32.6844 -4.78428 -14.5123
ltibia 86.3703 -0 0
lfoot -39.3798 -14.2029 -0.00656024
ltoes -3.60476 0 0
rfemur -48.2816 -6.04094 -2.58105
rtibia 63.6049 -0 0
rfoot -8.93098 -1.44691 -0.0530055
rtoes -38.6872 0 0
lowerback 12.3076 0.0078694 1.12791
upperback 6.48657 0.955737 6.19333
thorax -0.181624 0.713993 5.73923
lowerneck -1.68592 -15.3489 -5.63437
upperneck 7.79797 -20.8402 8.64808
head 4.11187 -10.1197 2.38235
lclavicle -7.35331e-15 4.69758e-14 1.86083e-29
lhumerus -46.2525 -9.81611 101.946
lradius 53.7394 -0 0
lwrist 29.4141 0 0
lhand -24.7286 -3.20743 -0.000628089
lfingers 7.12502 -0 0
lthumb 1.77366 26.765 -0.000604371
rclavicle -7.35331e-15 4.69758e-14 1.86083e-29
rhumerus 9.83529 19.5496 -86.4912
rradius 134.776 -0 0
rwrist -43.8962 0 0
rhand -27.9557 -21.5056 0.000882609
rfingers 7.12502 -0 0
rthumb -1.34311 -51.4808 0.000907958
552
root 8.38493 14.1837 -3.37343 179.689 46.708 177.223
lfemur -32.3059 -4.37734 -14.4986
ltibia 85.3848 -0 0
lfoot -39.2622 -14.1088 -0.00482609
ltoes -3.83329 0 0
rfemur -47.9803 -5.35041 -2.51333
rtibia 62.6614 -0 0
rfoot -8.21144 -1.7593 -0.0492574
rtoes -38.585 0 0
lowerback 12.1012 -0.129841 0.933383
upperback 6.3252 0.711456 6.02817
thorax -0.218525 0.576098 5.7029
lowerneck -1.69112 -15.2907 -5.60735
upperneck 7.78889 -20.7599 8.55905
head 4.09189 -10.0844 2.36109
lclavicle -4.45741e-14 5.45099e-14 7.05144e-30
lhumerus -46.2552 -9.53766 101.736
lradius 53.4364 -0 0
lwrist 28.687 0 0
lhand -24.7767 -3.41604 -0.000681959
lfingers 7.12502 -0 0
lthumb 1.72723 26.5568 -0.000656344
rclavicle -4.45741e-14 5.45099e-14 7.05144e-30
rhumerus 10.9614 19.2651 -85.6704
rradius 134.889 -0 0
rwrist -43.7967 0 0
rhand -27.6978 -21.2464 0.0015981
rfingers 7.12502 -0 0
rthumb -1.094 -51.2228 0.00156812
553
root 8.37426 14.2646 -3.36662 179.827 47.0707 177.251
lfemur -31.872 -3.91712 -14.5189
ltibia 84.2628 -0 0
lfoot -39.143 -13.9165 -0.00252329
ltoes -4.08708 0 0
rfemur -47.6768 -4.69472 -2.4043
rtibia 61.5232 -0 0
rfoot -7.39387 -1.89451 -0.0314201
rtoes -38.4621 0 0
lowerback 11.8888 -0.255541 0.741501
upperback 6.15577 0.484096 5.86934
thorax -0.261692 0.446994 5.66925
lowerneck -1.71145 -15.2325 -5.56764
upperneck 7.79937 -20.679 8.44709
head 4.07672 -10.0482 2.33009
lclavicle -7.24851e-14 5.74632e-14 -1.96958e-30
lhumerus -46.2466 -9.28534 101.546
lradius 53.1819 -0 0
lwrist 28.0629 0 0
lhand -24.8379 -3.63001 -0.000506199
lfingers 7.12502 -0 0
lthumb 1.66816 26.3433 -0.000487264
rclavicle -7.24851e-14 5.74632e-14 -1.96958e-30
rhumerus 12.0586 18.985 -84.8745
rradius 134.976 -0 0
rwrist -43.7284 0 0
rhand -27.4884 -21.0463 0.00142412
rfingers 7.12502 -0 0
rthumb -0.891729 -51.0236 0.00137621
554
root 8.3563 14.3525 -3.36333 -179.986 47.593 -182.697
lfemur -31.3826 -3.40324 -14.5653
ltibia 83.0047 0 0
lfoot -39.0343 -13.6383 0
ltoes -4.33316 0 0
rfemur -47.3889 -4.12517 -2.23502
rtibia 60.1858 0 0
rfoot -6.48177 -1.78657 0
rtoes -38.3081 0 0
lowerback 11.6746 -0.365311 0.565689
upperback 5.98204 0.281785 5.72228
thorax -0.309362 0.331563 5.63564
lowerneck -1.74615 -15.1715 -5.50697
upperneck 7.82076 -20.5932 8.31043
head 4.06227 -10.0094 2.28884
lclavicle -8.42847e-14 5.40694e-14 0
lhumerus -46.2327 -9.05955 101.374
lradius 52.9867 0 0
lwrist 27.6295 0 0
lhand -24.9131 -3.83845 0
lfingers 7.12502 0 0
lthumb 1.5955 26.1353 0
rclavicle -8.42847e-14 5.40694e-14 0
rhumerus 13.0789 18.7614 -84.1306
rradius 135.006 0 0
rwrist -43.6819 0 0
rhand -27.3379 -20.9198 0
rfingers 7.12502 0 0
rthumb -0.746403 -770.898 0
